<svg id="visual" viewBox="0 0 900 600" width="900" height="600" xmlns="http://www.w3.org/2000/svg" xmlns:xlink="http://www.w3.org/1999/xlink" version="1.1"><rect width="900" height="600" fill="#001829"></rect><g><g transform="translate(527 430)"><path d="M0 -126.6L109.6 -63.3L109.6 63.3L0 126.6L-109.6 63.3L-109.6 -63.3Z" fill="none" stroke="#297EA6" stroke-width="2"></path></g><g transform="translate(623 58)"><path d="M0 -73L63.2 -36.5L63.2 36.5L0 73L-63.2 36.5L-63.2 -36.5Z" fill="none" stroke="#297EA6" stroke-width="2"></path></g><g transform="translate(132 547)"><path d="M0 -80L69.3 -40L69.3 40L0 80L-69.3 40L-69.3 -40Z" fill="none" stroke="#297EA6" stroke-width="2"></path></g><g transform="translate(271 3)"><path d="M0 -117L101.3 -58.5L101.3 58.5L0 117L-101.3 58.5L-101.3 -58.5Z" fill="none" stroke="#297EA6" stroke-width="2"></path></g><g transform="translate(816 269)"><path d="M0 -95L82.3 -47.5L82.3 47.5L0 95L-82.3 47.5L-82.3 -47.5Z" fill="none" stroke="#297EA6" stroke-width="2"></path></g><g transform="translate(314 259)"><path d="M0 -91L78.8 -45.5L78.8 45.5L0 91L-78.8 45.5L-78.8 -45.5Z" stroke="#297EA6" fill="none" stroke-width="2"></path></g><g transform="translate(799 574)"><path d="M0 -119L103.1 -59.5L103.1 59.5L0 119L-103.1 59.5L-103.1 -59.5Z" stroke="#297EA6" fill="none" stroke-width="2"></path></g><g transform="translate(52 213)"><path d="M0 -76L65.8 -38L65.8 38L0 76L-65.8 38L-65.8 -38Z" stroke="#297EA6" fill="none" stroke-width="2"></path></g></g></svg>