<svg xmlns="http://www.w3.org/2000/svg" width="500" height="500" style="width:100%;height:100%"><defs><clipPath id="a"><path d="M0 0h500v500H0z"/></clipPath></defs><g clip-path="url(#a)"><g display="block"><path stroke-linecap="round" stroke-linejoin="round" stroke="#08A88A" stroke-width="12.04" d="M237.942 262.796h24.116c13.319 0 24.116 10.797 24.116 24.116v8.068a4.358 4.358 0 01-3.858 4.329l-8.438.976a24.77 24.77 0 00-6.704 1.752s0 0 0 0a44.756 44.756 0 01-34.439.035l-.058-.024a25.963 25.963 0 00-6.993-1.818l-7.999-.922a4.36 4.36 0 01-3.859-4.33v-8.066c0-13.319 10.797-24.116 24.116-24.116zM249.436 194.5h1.128c9.801 0 17.65 8.125 17.309 17.921l-.564 16.208c-.324 9.325-7.978 16.717-17.309 16.717 0 0 0 0 0 0-9.331 0-16.985-7.392-17.309-16.717l-.564-16.208c-.341-9.796 7.508-17.921 17.309-17.921z" fill="none"/></g><g display="block"><path stroke-linecap="round" stroke-linejoin="round" stroke="#08A88A" stroke-width="12.04" d="M237.942 262.796h24.116c13.319 0 24.116 10.797 24.116 24.116v8.068a4.358 4.358 0 01-3.858 4.329l-8.438.976a24.77 24.77 0 00-6.704 1.752s0 0 0 0a44.756 44.756 0 01-34.439.035l-.058-.024a25.963 25.963 0 00-6.993-1.818l-7.999-.922a4.36 4.36 0 01-3.859-4.33v-8.066c0-13.319 10.797-24.116 24.116-24.116zM249.436 194.5h1.128c9.801 0 17.65 8.125 17.309 17.921l-.564 16.208c-.324 9.325-7.978 16.717-17.309 16.717 0 0 0 0 0 0-9.331 0-16.985-7.392-17.309-16.717l-.564-16.208c-.341-9.796 7.508-17.921 17.309-17.921z" fill="none"/></g><path stroke-linecap="round" stroke-linejoin="round" stroke="#121331" stroke-width="12.04" d="M336.999 250c0 48.048-38.951 86.999-86.999 86.999-48.048 0-86.999-38.951-86.999-86.999 0-48.048 38.951-86.999 86.999-86.999 48.048 0 86.999 38.951 86.999 86.999zM250 116.567v46.434m26.687-73.12c0 14.739-11.948 26.686-26.687 26.686s-26.687-11.947-26.687-26.686S235.261 63.194 250 63.194s26.687 11.948 26.687 26.687zM366.213 182.784L326 206.001m76.667-13.448c-12.764 7.37-29.084 2.995-36.454-9.769-7.37-12.764-2.997-29.085 9.767-36.455 12.765-7.37 29.086-2.996 36.455 9.768 7.37 12.765 2.997 29.086-9.768 36.456zM366.213 317.218L326 294.001m49.98 59.672c-12.764-7.37-17.136-23.69-9.767-36.455 7.37-12.764 23.69-17.138 36.454-9.769 12.765 7.37 17.138 23.691 9.768 36.455-7.37 12.765-23.69 17.138-36.455 9.769zM250 383.435v-46.434m-26.687 73.12c0-14.739 11.948-26.686 26.687-26.686s26.687 11.947 26.687 26.686-11.948 26.687-26.687 26.687-26.687-11.948-26.687-26.687zM134.287 316.718l40.213-23.217m-76.667 13.448c12.764-7.37 29.084-2.995 36.454 9.769 7.37 12.764 2.997 29.085-9.767 36.455-12.765 7.37-29.086 2.996-36.455-9.768-7.37-12.765-2.997-29.086 9.768-36.456zM134.287 183.284l40.213 23.217m-49.98-59.672c12.764 7.37 17.136 23.69 9.767 36.455-7.37 12.764-23.69 17.138-36.454 9.769-12.765-7.37-17.138-23.691-9.768-36.456 7.37-12.764 23.69-17.137 36.455-9.768z" fill="none" display="block"/></g></svg>